<?xml version="1.0" encoding="UTF-8" standalone="no"?>
<!-- Created with Inkscape (http://www.inkscape.org/) -->

<svg
   xmlns:dc="http://purl.org/dc/elements/1.1/"
   xmlns:cc="http://creativecommons.org/ns#"
   xmlns:rdf="http://www.w3.org/1999/02/22-rdf-syntax-ns#"
   xmlns:svg="http://www.w3.org/2000/svg"
   xmlns="http://www.w3.org/2000/svg"
   xmlns:sodipodi="http://sodipodi.sourceforge.net/DTD/sodipodi-0.dtd"
   xmlns:inkscape="http://www.inkscape.org/namespaces/inkscape"
   width="60.091663mm"
   height="60.091667mm"
   viewBox="0 0 60.091663 60.091667"
   version="1.1"
   id="svg8"
   sodipodi:docname="bitcoin.svg"
   inkscape:version="0.92.3 (2405546, 2018-03-11)"
   style="background:#ffffff;">
  <defs
     id="defs2" />
  <sodipodi:namedview
     id="base"
     pagecolor="#ffffff"
     bordercolor="#666666"
     borderopacity="1.0"
     inkscape:pageopacity="0.0"
     inkscape:pageshadow="2"
     inkscape:zoom="2.8"
     inkscape:cx="230.63676"
     inkscape:cy="110.06798"
     inkscape:document-units="mm"
     inkscape:current-layer="layer1"
     showgrid="false"
     inkscape:window-width="993"
     inkscape:window-height="803"
     inkscape:window-x="991"
     inkscape:window-y="429"
     inkscape:window-maximized="0"
     fit-margin-top="2"
     fit-margin-left="2"
     fit-margin-right="2"
     fit-margin-bottom="2" />
  <metadata
     id="metadata5">
    <rdf:RDF>
      <cc:Work
         rdf:about="">
        <dc:format>image/svg+xml</dc:format>
        <dc:type
           rdf:resource="http://purl.org/dc/dcmitype/StillImage" />
        <dc:title></dc:title>
      </cc:Work>
    </rdf:RDF>
  </metadata>
  <g
     inkscape:label="Layer 1"
     inkscape:groupmode="layer"
     id="layer1"
     transform="translate(-26.488473,-48.466262)">
    <path
       style="fill:#000000;stroke-width:0.26458332"
       d="m 28.488473,99.811054 v -6.746872 h 6.746875 6.746875 v 6.746872 6.746876 h -6.746875 -6.746875 z m 11.641667,0 v -4.89479 h -4.894792 -4.894791 v 4.89479 4.894786 h 4.894791 4.894792 z m -7.672917,-0.13229 v -2.91042 h 2.910417 2.910417 v 2.91042 2.910416 H 35.36764 32.457223 Z m 11.377083,5.953116 v -0.92604 h 1.058334 1.058333 v 0.92604 0.92605 H 44.89264 43.834306 Z m 7.9375,0 v -0.92604 h 1.852084 1.852083 v -1.05833 -1.05833 H 54.549931 53.62389 v -0.92605 -0.92604 h 0.926041 0.926042 v -0.926036 -0.92604 h 1.058333 1.058334 v -1.98438 -1.98437 h 0.926041 0.926042 v -0.926042 -0.92604 H 58.518681 57.59264 v -0.92605 -0.92604 h -1.058334 -1.058333 v 0.92604 0.92605 H 54.549931 53.62389 v -0.92605 -0.92604 H 51.639515 49.65514 v 0.92604 0.92605 h 1.058333 1.058333 v 1.852082 1.85208 H 50.713473 49.65514 v 1.05834 1.05833 h -1.852084 -1.852083 v 0.92604 0.926036 h 0.926042 0.926041 v 0.92604 0.92605 h -1.984375 -1.984375 v -1.85209 -1.852076 h 1.058334 1.058333 v -1.05833 -1.05834 H 44.89264 43.834306 v -2.778122 -2.77813 h 2.910417 2.910417 v -1.05833 -1.05833 h 3.96875 3.96875 v -2.91042 -2.910417 h 0.926041 0.926042 V 82.348553 81.422512 H 58.518681 57.59264 V 80.49647 79.570428 h 1.852083 1.852083 V 78.512095 77.453762 H 60.370765 59.444723 V 76.52772 75.601678 h 0.926042 0.926041 v -0.926041 -0.926042 h 1.058334 1.058333 v 1.852083 1.852084 h 0.926042 0.926041 V 76.52772 75.601678 h 0.926042 0.926042 v -0.926041 -0.926042 h -0.926042 -0.926042 v -1.058333 -1.058334 h 0.926042 0.926042 v -0.926041 -0.926042 h -3.836459 -3.836458 v -0.926041 -0.926042 h 0.926042 0.926041 v -1.058333 -1.058334 h -0.926041 -0.926042 v -3.836458 -3.836458 h 0.926042 0.926041 v 1.058333 1.058333 h 1.058334 1.058333 v -1.058333 -1.058333 h 1.852083 1.852084 v -0.926042 -0.926041 h -0.926042 -0.926042 v -0.926042 -0.926042 h 0.926042 0.926042 v -1.058333 -1.058333 h -1.852084 -1.852083 v 1.058333 1.058333 H 62.35514 61.296806 v 0.926042 0.926042 h -0.926041 -0.926042 v -0.926042 -0.926042 h 0.926042 0.926041 V 53.376679 52.318346 H 59.444723 57.59264 v -0.926042 -0.926042 h 5.820833 5.820833 v 1.984375 1.984375 H 68.175973 67.11764 v 0.926042 0.926042 h 1.058333 1.058333 v 0.926041 0.926042 H 68.175973 67.11764 v 1.058333 1.058333 h 1.058333 1.058333 v 8.598959 8.598958 h 0.926042 0.926042 v 1.058333 1.058333 h 0.926041 0.926042 v -1.058333 -1.058333 h 1.984375 1.984375 V 76.52772 75.601678 H 75.848889 74.790556 V 73.617303 71.632928 H 73.864514 72.938473 V 70.706887 69.780845 H 72.012431 71.08639 V 67.79647 65.812095 h 0.926041 0.926042 v 1.984375 1.984375 h 0.926041 0.926042 v -0.926041 -0.926042 h 1.058333 1.058334 v -1.058333 -1.058334 h 0.926041 0.926042 v 1.058334 1.058333 h -0.926042 -0.926041 v 0.926042 0.926041 h 0.926041 0.926042 v 0.926042 0.926041 h -0.926042 -0.926041 v 1.984375 1.984375 h 0.926041 0.926042 v -0.926041 -0.926042 h 0.926042 0.926041 v 0.926042 0.926041 h 1.984375 1.984372 v 1.984375 1.984375 h -2.910413 -2.910417 v 0.926042 0.926042 h -0.926042 -0.926041 v 0.926041 0.926042 h 1.852083 1.852083 v 1.058333 1.058334 h -0.926041 -0.926042 v 0.92604 0.92604 h 0.926042 0.926041 v 1.98438 1.98437 h 1.058334 1.058333 v -1.98437 -1.98438 h 0.92604 0.92604 v 2.91042 2.91042 h -0.92604 -0.92604 v 0.92604 0.926042 h -1.058333 -1.058334 v -0.926042 -0.92604 h -1.852083 -1.852083 v 0.92604 0.926042 h 0.926041 0.926042 v 0.92604 0.92604 h 2.910417 2.910413 v 2.91042 2.910416 h -0.92604 -0.92604 v 1.98437 1.98438 h -1.058333 -1.058334 v -1.98438 -1.98437 h -1.852083 -1.852083 v -0.92605 -0.92604 h 1.852083 1.852083 v 0.92604 0.92605 h 1.058334 1.058333 v -1.85209 -1.852076 H 76.907223 71.08639 v 0.92604 0.926036 h -0.926042 -0.926042 v -0.926036 -0.92604 H 68.175973 67.11764 v -1.98438 -1.98437 h -0.926042 -0.926042 v -0.926042 -0.92604 h -0.926041 -0.926042 v 0.92604 0.926042 H 62.35514 61.296806 v 1.98437 1.98438 h 1.984375 1.984375 v 0.92604 0.926036 h 0.926042 0.926042 v 1.98438 1.98437 h 1.058333 1.058333 v 0.92604 0.92605 h -1.984375 -1.984375 v -2.91042 -2.91042 h -0.926041 -0.926042 v 0.92604 0.92605 H 62.35514 61.296806 v -0.92605 -0.92604 H 58.38639 55.475973 v 0.92604 0.92605 h 1.058333 1.058334 v 1.98437 1.98438 H 54.682223 51.771806 Z M 49.65514,94.916264 v -1.852082 h -1.852084 -1.852083 v 1.852082 1.85208 h 1.852083 1.852084 z m 25.135416,-0.926042 v -2.77813 h -2.778125 -2.778125 v 2.77813 2.778122 h 2.778125 2.778125 z m -3.704166,0 v -0.92604 h 0.926041 0.926042 v 0.92604 0.926042 H 72.012431 71.08639 Z m -3.96875,-1.85209 v -0.92604 h -0.926042 -0.926042 v 0.92604 0.92605 h 0.926042 0.926042 z m -3.704167,-1.98437 v -1.05833 h 2.910417 2.910416 v -0.92605 -0.92604 h 0.926042 0.926042 v 0.92604 0.92605 h 0.926041 0.926042 v -0.92605 -0.92604 h 0.926041 0.926042 v 0.92604 0.92605 h 1.058333 1.058334 v -0.92605 -0.92604 h -1.058334 -1.058333 v -0.92604 -0.92604 h 1.058333 1.058334 v -1.058334 -1.058333 h -1.058334 -1.058333 v 1.058333 1.058334 H 73.864514 72.938473 V 83.406887 81.422512 H 72.012431 71.08639 v 0.926041 0.926042 h -0.926042 -0.926042 v 1.058333 1.058334 H 66.32389 63.413473 v -1.984375 -1.984375 h 0.926042 0.926041 v 0.926041 0.926042 h 0.926042 0.926042 V 82.348553 81.422512 H 66.191598 65.265556 V 80.49647 79.570428 h -1.984375 -1.984375 v 1.852084 1.852083 h -0.926041 -0.926042 v 2.910417 2.91042 h 0.926042 0.926041 v 1.05833 1.05833 h 1.058334 1.058333 z m -2.116667,-1.98438 v -0.92604 h 1.058334 1.058333 v 0.92604 0.92605 H 62.35514 61.296806 Z m 9.789584,-1.85208 v -0.92604 h 0.926041 0.926042 v 0.92604 0.92604 H 72.012431 71.08639 Z m 7.672916,-7.805207 v -1.058333 h 0.926042 0.926041 V 76.52772 75.601678 h -0.926041 -0.926042 v 0.926042 0.926042 h -0.926042 -0.926041 v 1.058333 1.058333 h 0.926041 0.926042 z M 67.11764,63.960012 v -1.852083 h -0.926042 -0.926042 v -0.926042 -0.926042 h -0.926041 -0.926042 v 0.926042 0.926042 H 62.35514 61.296806 v 0.926041 0.926042 h 1.058334 1.058333 v 0.926042 0.926041 h 1.852083 1.852084 z M 63.413473,63.03397 v -0.926041 h 0.926042 0.926041 v 0.926041 0.926042 h -0.926041 -0.926042 z m -3.96875,42.59791 v -0.92604 h 0.926042 0.926041 v 0.92604 0.92605 h -0.926041 -0.926042 z m 11.641667,0 v -0.92604 h 0.926041 0.926042 v -1.98437 -1.98438 h 0.926041 0.926042 v 2.91042 2.91042 H 72.938473 71.08639 Z m 5.820833,0 v -0.92604 h 0.926041 0.926042 v 0.92604 0.92605 H 77.833264 76.907223 Z M 53.62389,95.842304 v -0.92604 h 0.926041 0.926042 v 0.92604 0.92604 H 54.549931 53.62389 Z M 30.340557,90.153762 v -1.05833 h 1.984375 1.984375 v 1.05833 1.05833 h -1.984375 -1.984375 z m 5.820833,-0.92604 v -1.98438 h -1.852083 -1.852084 v -0.92604 -0.92604 H 31.39889 30.340557 v 0.92604 0.92604 h -0.926042 -0.926042 v -0.92604 -0.92604 h 0.926042 0.926042 V 83.406887 81.422512 H 29.414515 28.488473 V 80.49647 79.570428 h 2.910417 2.910417 v 1.852084 1.852083 h 0.926041 0.926042 v 1.058333 1.058334 h 5.820833 5.820833 V 84.332928 83.274595 H 43.966598 40.13014 V 82.348553 81.422512 H 38.145765 36.16139 V 80.49647 79.570428 h 1.984375 1.984375 V 78.512095 77.453762 H 39.204098 38.278057 V 76.52772 75.601678 H 37.219723 36.16139 v 0.926042 0.926042 H 35.235348 34.309307 V 75.601678 73.749595 H 33.383265 32.457223 V 72.691262 71.632928 H 31.39889 30.340557 v 1.058334 1.058333 h -0.926042 -0.926042 v -3.96875 -3.96875 h 0.926042 0.926042 v 1.058334 1.058333 h 1.058333 1.058333 v -1.058333 -1.058334 h 1.852084 1.852083 v 1.058334 1.058333 h 1.058333 1.058334 v -1.058333 -1.058334 h 2.778125 2.778124 v -1.852083 -1.852083 h 1.058334 1.058333 V 60.123554 58.139179 H 44.89264 43.834306 v -0.926042 -0.926041 h 1.058334 1.058333 V 55.361054 54.435012 H 44.89264 43.834306 v -1.984375 -1.984375 h 1.984375 1.984375 v 0.926042 0.926042 h 1.984375 1.984375 v -0.926042 -0.926042 h 0.926042 0.926042 v 1.984375 1.984375 h 1.984375 1.984375 v 2.910417 2.910416 h -1.058334 -1.058333 v 0.926042 0.926042 h 1.058333 1.058334 v 3.836458 3.836458 h -1.058334 -1.058333 v 0.926042 0.926041 h 1.984375 1.984375 v 1.058334 1.058333 H 58.518681 57.59264 v 1.852083 1.852084 h -1.058334 -1.058333 v 1.058333 1.058333 H 52.565556 49.65514 v -1.058333 -1.058333 h -0.926042 -0.926042 v 2.910416 2.910417 h 1.984375 1.984375 v 1.058333 1.058334 h 0.926042 0.926042 v -1.984375 -1.984375 h 0.926041 0.926042 v 2.910416 2.910414 H 53.62389 51.771806 v -0.92604 -0.92604 H 50.713473 49.65514 v 0.92604 0.92604 h -2.910417 -2.910417 v 0.92604 0.92605 h -0.926041 -0.926042 v 1.05833 1.05833 H 41.056182 40.13014 v -1.05833 -1.05833 h -0.926042 -0.926041 v 1.05833 1.05833 H 37.219723 36.16139 Z m 5.820833,-1.05834 v -0.92604 H 41.056182 40.13014 v 0.92604 0.92605 h 0.926042 0.926041 z m -7.672916,-3.836454 v -1.058333 h -0.926042 -0.926042 v 1.058333 1.058334 h 0.926042 0.926042 z M 45.950973,80.49647 V 79.570428 H 44.89264 43.834306 v -1.984375 -1.984375 h 1.058334 1.058333 v 0.926042 0.926042 h 0.926042 0.926041 v -1.852084 -1.852083 h 1.984375 1.984375 v -1.058333 -1.058334 h 0.926042 0.926042 v -0.926041 -0.926042 h 0.926041 0.926042 V 68.854804 67.928762 H 54.549931 53.62389 v 0.926042 0.926041 H 50.713473 47.803056 V 68.854804 67.928762 H 46.877015 45.950973 V 66.870429 65.812095 H 44.89264 43.834306 v 1.058334 1.058333 h 1.058334 1.058333 v 0.926042 0.926041 h 0.926042 0.926041 v 1.984375 1.984375 H 44.89264 41.982223 V 72.691262 71.632928 H 41.056182 40.13014 v -0.926041 -0.926042 h 0.926042 0.926041 V 68.854804 67.928762 H 40.13014 38.278057 v 0.926042 0.926041 H 37.219723 36.16139 v -0.926041 -0.926042 h -1.852083 -1.852084 v 1.852083 1.852083 h 0.926042 0.926042 v 1.058334 1.058333 h 0.926041 0.926042 v -1.058333 -1.058334 h 1.058333 1.058334 v 1.984375 1.984375 h 0.926041 0.926042 v 0.926042 0.926042 h 0.926042 0.926041 v 1.058333 1.058333 H 41.056182 40.13014 v 0.926042 0.926042 h 2.910416 2.910417 z M 40.13014,74.675637 v -0.926042 h 0.926042 0.926041 v 0.926042 0.926041 H 41.056182 40.13014 Z m 13.49375,1.852083 v -0.926042 h 0.926041 0.926042 V 74.675637 73.749595 H 54.549931 53.62389 v 0.926042 0.926041 H 51.639515 49.65514 v 0.926042 0.926042 h 1.984375 1.984375 z M 51.771806,66.870429 V 65.812095 H 50.713473 49.65514 v -0.926041 -0.926042 h 1.058333 1.058333 v -1.852083 -1.852084 h 0.926042 0.926042 v -1.058333 -1.058333 h 0.926041 0.926042 V 57.213137 56.287096 H 54.549931 53.62389 v -0.926042 -0.926042 h -0.926042 -0.926042 v 0.926042 0.926042 H 50.713473 49.65514 v 3.836458 3.836458 H 48.729098 47.803056 V 63.03397 62.107929 h -0.926041 -0.926042 v 0.926041 0.926042 h 0.926042 0.926041 v 0.926042 0.926041 h 0.926042 0.926042 v 1.058334 1.058333 h 1.058333 1.058333 z m 3.704167,-2.910417 V 62.107929 H 54.549931 53.62389 v 1.852083 1.852083 h 0.926041 0.926042 z m -7.672917,-6.746875 v -0.926041 h -0.926041 -0.926042 v 0.926041 0.926042 h 0.926042 0.926041 z m 0,-3.836458 v -1.058333 h -0.926041 -0.926042 v 1.058333 1.058333 h 0.926042 0.926041 z m 34.925,28.971874 v -0.926041 h 0.92604 0.92604 v 0.926041 0.926042 h -0.92604 -0.92604 z M 30.340557,76.52772 v -0.926042 h 1.058333 1.058333 v 0.926042 0.926042 H 31.39889 30.340557 Z m 52.387499,-3.836458 v -1.058334 h -1.058333 -1.058334 v -2.910416 -2.910417 h 1.984375 1.984372 v 1.984375 1.984375 h -0.92604 -0.92604 v 0.926042 0.926041 h 0.92604 0.92604 v 1.058334 1.058333 h -0.92604 -0.92604 z M 28.488473,57.213137 v -6.746875 h 6.746875 6.746875 v 6.746875 6.746875 h -6.746875 -6.746875 z m 11.641667,0 v -4.894791 h -4.894792 -4.894791 v 4.894791 4.894792 h 4.894791 4.894792 z m -7.672917,0.132292 v -2.910417 h 2.910417 2.910417 v 2.910417 2.910416 H 35.36764 32.457223 Z M 71.08639,57.213137 v -6.746875 h 6.746874 6.746872 v 6.746875 6.746875 H 77.833264 71.08639 Z m 11.641666,0 v -4.894791 h -4.894792 -4.894791 v 4.894791 4.894792 h 4.894791 4.894792 z m -7.9375,0.132292 v -2.910417 h 2.910417 2.910416 v 2.910417 2.910416 h -2.910416 -2.910417 z"
       id="path3726"
       inkscape:connector-curvature="0" />
  </g>
</svg>
